<svg width="405" height="405" viewBox="0 0 405 405" fill="none" xmlns="http://www.w3.org/2000/svg">
<path d="M119 251.5C142.023 220.508 157.4 199.807 176.689 173.841C185.792 161.588 204.717 163.636 210.985 177.554C221.302 200.465 230.158 220.13 239.665 241.24C250.131 264.481 282.615 265.868 295.017 243.599L313.931 209.633L355.524 134.944C358.646 129.338 366.684 129.551 369.08 135.504C377.413 156.205 382 178.817 382 202.5C382 301.635 301.635 382 202.5 382C103.365 382 23 301.635 23 202.5C23 103.365 103.365 23 202.5 23C246.785 23 287.325 39.0373 318.628 65.621" stroke="url(#paint0_linear_11_44)" stroke-width="46" stroke-linecap="round"/>
<path d="M224.5 98H230.5V148H224.5V98Z" fill="url(#paint1_linear_11_44)"/>
<path d="M218 111H237V131H218V111Z" fill="url(#paint2_linear_11_44)"/>
<path d="M245.5 118H251.5V181H245.5V118Z" fill="url(#paint3_linear_11_44)"/>
<path d="M239 131H258V164H239V131Z" fill="url(#paint4_linear_11_44)"/>
<path d="M266.5 160.5H272.5V203H266.5V160.5Z" fill="url(#paint5_linear_11_44)"/>
<path d="M260 164H279V190H260V164Z" fill="url(#paint6_linear_11_44)"/>
<defs>
<linearGradient id="paint0_linear_11_44" x1="62" y1="18" x2="382" y2="345" gradientUnits="userSpaceOnUse">
<stop stop-color="#095289"/>
<stop offset="1" stop-color="#00A4B1"/>
</linearGradient>
<linearGradient id="paint1_linear_11_44" x1="237.467" y1="143.476" x2="188.348" y2="94.348" gradientUnits="userSpaceOnUse">
<stop stop-color="#FF0000"/>
<stop offset="1" stop-color="#9D0000"/>
</linearGradient>
<linearGradient id="paint2_linear_11_44" x1="237.467" y1="143.476" x2="188.348" y2="94.348" gradientUnits="userSpaceOnUse">
<stop stop-color="#FF0000"/>
<stop offset="1" stop-color="#9D0000"/>
</linearGradient>
<linearGradient id="paint3_linear_11_44" x1="258.467" y1="175.3" x2="198.191" y2="127.453" gradientUnits="userSpaceOnUse">
<stop stop-color="#FF0000"/>
<stop offset="1" stop-color="#9D0000"/>
</linearGradient>
<linearGradient id="paint4_linear_11_44" x1="258.467" y1="175.3" x2="198.191" y2="127.453" gradientUnits="userSpaceOnUse">
<stop stop-color="#FF0000"/>
<stop offset="1" stop-color="#9D0000"/>
</linearGradient>
<linearGradient id="paint5_linear_11_44" x1="279.467" y1="199.471" x2="242.309" y2="151.824" gradientUnits="userSpaceOnUse">
<stop stop-color="#FF0000"/>
<stop offset="1" stop-color="#9D0000"/>
</linearGradient>
<linearGradient id="paint6_linear_11_44" x1="279.467" y1="199.471" x2="242.309" y2="151.824" gradientUnits="userSpaceOnUse">
<stop stop-color="#FF0000"/>
<stop offset="1" stop-color="#9D0000"/>
</linearGradient>
</defs>
</svg>
